<svg id="visual" viewBox="0 0 900 200" width="900" height="200" xmlns="http://www.w3.org/2000/svg" xmlns:xlink="http://www.w3.org/1999/xlink" version="1.1"><rect x="0" y="0" width="900" height="200" fill="#02111c"></rect><path d="M0 63L21.5 62.8C43 62.7 86 62.3 128.8 65.2C171.7 68 214.3 74 257.2 72.8C300 71.7 343 63.3 385.8 63C428.7 62.7 471.3 70.3 514.2 73.8C557 77.3 600 76.7 642.8 72C685.7 67.3 728.3 58.7 771.2 58.3C814 58 857 66 878.5 70L900 74L900 0L878.5 0C857 0 814 0 771.2 0C728.3 0 685.7 0 642.8 0C600 0 557 0 514.2 0C471.3 0 428.7 0 385.8 0C343 0 300 0 257.2 0C214.3 0 171.7 0 128.8 0C86 0 43 0 21.5 0L0 0Z" fill="#f8ea4e"></path><path d="M0 40L21.5 40.7C43 41.3 86 42.7 128.8 43.5C171.7 44.3 214.3 44.7 257.2 46.5C300 48.3 343 51.7 385.8 52.3C428.7 53 471.3 51 514.2 51.5C557 52 600 55 642.8 55.5C685.7 56 728.3 54 771.2 54C814 54 857 56 878.5 57L900 58L900 0L878.5 0C857 0 814 0 771.2 0C728.3 0 685.7 0 642.8 0C600 0 557 0 514.2 0C471.3 0 428.7 0 385.8 0C343 0 300 0 257.2 0C214.3 0 171.7 0 128.8 0C86 0 43 0 21.5 0L0 0Z" fill="#fae03f"></path><path d="M0 47L21.5 45C43 43 86 39 128.8 36.8C171.7 34.7 214.3 34.3 257.2 36.5C300 38.7 343 43.3 385.8 42.7C428.7 42 471.3 36 514.2 32.8C557 29.7 600 29.3 642.8 29.3C685.7 29.3 728.3 29.7 771.2 29.7C814 29.7 857 29.3 878.5 29.2L900 29L900 0L878.5 0C857 0 814 0 771.2 0C728.3 0 685.7 0 642.8 0C600 0 557 0 514.2 0C471.3 0 428.7 0 385.8 0C343 0 300 0 257.2 0C214.3 0 171.7 0 128.8 0C86 0 43 0 21.5 0L0 0Z" fill="#fcd630"></path><path d="M0 22L21.5 23.2C43 24.3 86 26.7 128.8 27.8C171.7 29 214.3 29 257.2 29.5C300 30 343 31 385.8 31.5C428.7 32 471.3 32 514.2 31.3C557 30.7 600 29.3 642.8 29.2C685.7 29 728.3 30 771.2 30C814 30 857 29 878.5 28.5L900 28L900 0L878.5 0C857 0 814 0 771.2 0C728.3 0 685.7 0 642.8 0C600 0 557 0 514.2 0C471.3 0 428.7 0 385.8 0C343 0 300 0 257.2 0C214.3 0 171.7 0 128.8 0C86 0 43 0 21.5 0L0 0Z" fill="#fecc1f"></path><path d="M0 17L21.5 17.5C43 18 86 19 128.8 19.8C171.7 20.7 214.3 21.3 257.2 19.5C300 17.7 343 13.3 385.8 13.3C428.7 13.3 471.3 17.7 514.2 17.5C557 17.3 600 12.7 642.8 12C685.7 11.3 728.3 14.7 771.2 16.8C814 19 857 20 878.5 20.5L900 21L900 0L878.5 0C857 0 814 0 771.2 0C728.3 0 685.7 0 642.8 0C600 0 557 0 514.2 0C471.3 0 428.7 0 385.8 0C343 0 300 0 257.2 0C214.3 0 171.7 0 128.8 0C86 0 43 0 21.5 0L0 0Z" fill="#ffc107"></path></svg>